<svg xmlns="http://www.w3.org/2000/svg" viewBox="0 0 24 24" fill="none" stroke="#8a79bb" stroke-width="1.4" stroke-linecap="round" stroke-linejoin="round">
  <path d="M12 8a4 4 0 1 1 0 8 4 4 0 0 1 0-8Z" />
  <path d="m4.2 9.7 1.2-.2a1 1 0 0 0 .76-.53l.77-1.53a1 1 0 0 1 1.25-.47l1.46.58a1 1 0 0 0 .94-.15l1.24-.93a1 1 0 0 1 1.2 0l1.24.93a1 1 0 0 0 .94.15l1.46-.58a1 1 0 0 1 1.25.47l.77 1.53a1 1 0 0 0 .76.53l1.2.2a1 1 0 0 1 .82.98v1.64a1 1 0 0 1-.82.98l-1.2.2a1 1 0 0 0-.76.53l-.77 1.53a1 1 0 0 1-1.25.47l-1.46-.58a1 1 0 0 0-.94.15l-1.24.93a1 1 0 0 1-1.2 0l-1.24-.93a1 1 0 0 0-.94-.15l-1.46.58a1 1 0 0 1-1.25-.47l-.77-1.53a1 1 0 0 0-.76-.53l-1.2-.2a1 1 0 0 1-.82-.98V10.7a1 1 0 0 1 .82-.98Z" />
</svg>
